<svg xmlns="http://www.w3.org/2000/svg" viewBox="0 0 19 19" shape-rendering="geometricPrecision"><circle class="bg" cx="9.5" cy="9.5" r="9.5"></circle><g shape-rendering="crispEdges"><rect x="6.00" y="3.50" width="1" height="1" fill="#eef0f4"></rect><rect x="7.00" y="3.50" width="1" height="1" fill="#eef0f4"></rect><rect x="8.00" y="3.50" width="1" height="1" fill="#eef0f4"></rect><rect x="9.00" y="3.50" width="1" height="1" fill="#eef0f4"></rect><rect x="10.00" y="3.50" width="1" height="1" fill="#eef0f4"></rect><rect x="11.00" y="3.50" width="1" height="1" fill="#eef0f4"></rect><rect x="12.00" y="3.50" width="1" height="1" fill="#eef0f4"></rect><rect x="4.00" y="4.50" width="1" height="1" fill="#eef0f4"></rect><rect x="5.00" y="4.50" width="1" height="1" fill="#eef0f4"></rect><rect x="6.00" y="4.50" width="1" height="1" fill="#eef0f4"></rect><rect x="7.00" y="4.50" width="1" height="1" fill="#eef0f4"></rect><rect x="8.00" y="4.50" width="1" height="1" fill="#eef0f4"></rect><rect x="9.00" y="4.50" width="1" height="1" fill="#eef0f4"></rect><rect x="10.00" y="4.50" width="1" height="1" fill="#eef0f4"></rect><rect x="11.00" y="4.50" width="1" height="1" fill="#eef0f4"></rect><rect x="12.00" y="4.50" width="1" height="1" fill="#eef0f4"></rect><rect x="13.00" y="4.50" width="1" height="1" fill="#eef0f4"></rect><rect x="14.00" y="4.50" width="1" height="1" fill="#eef0f4"></rect><rect x="3.00" y="5.50" width="1" height="1" fill="#eef0f4"></rect><rect x="4.00" y="5.50" width="1" height="1" fill="#eef0f4"></rect><rect x="5.00" y="5.50" width="1" height="1" fill="#eef0f4"></rect><rect x="6.00" y="5.50" width="1" height="1" fill="#eef0f4"></rect><rect x="7.00" y="5.50" width="1" height="1" fill="#eef0f4"></rect><rect x="8.00" y="5.50" width="1" height="1" fill="#eef0f4"></rect><rect x="9.00" y="5.50" width="1" height="1" fill="#eef0f4"></rect><rect x="10.00" y="5.50" width="1" height="1" fill="#eef0f4"></rect><rect x="11.00" y="5.50" width="1" height="1" fill="#eef0f4"></rect><rect x="12.00" y="5.50" width="1" height="1" fill="#eef0f4"></rect><rect x="13.00" y="5.50" width="1" height="1" fill="#eef0f4"></rect><rect x="14.00" y="5.50" width="1" height="1" fill="#eef0f4"></rect><rect x="15.00" y="5.50" width="1" height="1" fill="#eef0f4"></rect><rect x="3.00" y="6.50" width="1" height="1" fill="#eef0f4"></rect><rect x="4.00" y="6.50" width="1" height="1" fill="#eef0f4"></rect><rect x="5.00" y="6.50" width="1" height="1" fill="#eef0f4"></rect><rect x="6.00" y="6.50" width="1" height="1" fill="#eef0f4"></rect><rect x="7.00" y="6.50" width="1" height="1" fill="#eef0f4"></rect><rect x="8.00" y="6.50" width="1" height="1" fill="#eef0f4"></rect><rect x="9.00" y="6.50" width="1" height="1" fill="#eef0f4"></rect><rect x="10.00" y="6.50" width="1" height="1" fill="#eef0f4"></rect><rect x="11.00" y="6.50" width="1" height="1" fill="#eef0f4"></rect><rect x="12.00" y="6.50" width="1" height="1" fill="#eef0f4"></rect><rect x="13.00" y="6.50" width="1" height="1" fill="#eef0f4"></rect><rect x="14.00" y="6.50" width="1" height="1" fill="#eef0f4"></rect><rect x="15.00" y="6.50" width="1" height="1" fill="#eef0f4"></rect><rect x="3.00" y="7.50" width="1" height="1" fill="#eef0f4"></rect><rect x="4.00" y="7.50" width="1" height="1" fill="#141b2e"></rect><rect x="5.00" y="7.50" width="1" height="1" fill="#141b2e"></rect><rect x="6.00" y="7.50" width="1" height="1" fill="#141b2e"></rect><rect x="7.00" y="7.50" width="1" height="1" fill="#141b2e"></rect><rect x="8.00" y="7.50" width="1" height="1" fill="#141b2e"></rect><rect x="9.00" y="7.50" width="1" height="1" fill="#141b2e"></rect><rect x="10.00" y="7.50" width="1" height="1" fill="#141b2e"></rect><rect x="11.00" y="7.50" width="1" height="1" fill="#141b2e"></rect><rect x="12.00" y="7.50" width="1" height="1" fill="#141b2e"></rect><rect x="13.00" y="7.50" width="1" height="1" fill="#141b2e"></rect><rect x="14.00" y="7.50" width="1" height="1" fill="#141b2e"></rect><rect x="15.00" y="7.50" width="1" height="1" fill="#eef0f4"></rect><rect x="3.00" y="8.50" width="1" height="1" fill="#eef0f4"></rect><rect x="4.00" y="8.50" width="1" height="1" fill="#141b2e"></rect><rect x="5.00" y="8.50" width="1" height="1" fill="#f5d6a0"></rect><rect x="6.00" y="8.50" width="1" height="1" fill="#f5d6a0"></rect><rect x="7.00" y="8.50" width="1" height="1" fill="#f5d6a0"></rect><rect x="8.00" y="8.50" width="1" height="1" fill="#141b2e"></rect><rect x="9.00" y="8.50" width="1" height="1" fill="#141b2e"></rect><rect x="10.00" y="8.50" width="1" height="1" fill="#141b2e"></rect><rect x="11.00" y="8.50" width="1" height="1" fill="#f5d6a0"></rect><rect x="12.00" y="8.50" width="1" height="1" fill="#f5d6a0"></rect><rect x="13.00" y="8.50" width="1" height="1" fill="#f5d6a0"></rect><rect x="14.00" y="8.50" width="1" height="1" fill="#141b2e"></rect><rect x="15.00" y="8.50" width="1" height="1" fill="#eef0f4"></rect><rect x="3.00" y="9.50" width="1" height="1" fill="#eef0f4"></rect><rect x="4.00" y="9.50" width="1" height="1" fill="#141b2e"></rect><rect x="5.00" y="9.50" width="1" height="1" fill="#f5d6a0"></rect><rect x="6.00" y="9.50" width="1" height="1" fill="#f5d6a0"></rect><rect x="7.00" y="9.50" width="1" height="1" fill="#f5d6a0"></rect><rect x="8.00" y="9.50" width="1" height="1" fill="#141b2e"></rect><rect x="9.00" y="9.50" width="1" height="1" fill="#141b2e"></rect><rect x="10.00" y="9.50" width="1" height="1" fill="#141b2e"></rect><rect x="11.00" y="9.50" width="1" height="1" fill="#f5d6a0"></rect><rect x="12.00" y="9.50" width="1" height="1" fill="#f5d6a0"></rect><rect x="13.00" y="9.50" width="1" height="1" fill="#f5d6a0"></rect><rect x="14.00" y="9.50" width="1" height="1" fill="#141b2e"></rect><rect x="15.00" y="9.50" width="1" height="1" fill="#eef0f4"></rect><rect x="3.00" y="10.50" width="1" height="1" fill="#eef0f4"></rect><rect x="4.00" y="10.50" width="1" height="1" fill="#141b2e"></rect><rect x="5.00" y="10.50" width="1" height="1" fill="#141b2e"></rect><rect x="6.00" y="10.50" width="1" height="1" fill="#141b2e"></rect><rect x="7.00" y="10.50" width="1" height="1" fill="#141b2e"></rect><rect x="8.00" y="10.50" width="1" height="1" fill="#141b2e"></rect><rect x="9.00" y="10.50" width="1" height="1" fill="#141b2e"></rect><rect x="10.00" y="10.50" width="1" height="1" fill="#141b2e"></rect><rect x="11.00" y="10.50" width="1" height="1" fill="#141b2e"></rect><rect x="12.00" y="10.50" width="1" height="1" fill="#141b2e"></rect><rect x="13.00" y="10.50" width="1" height="1" fill="#141b2e"></rect><rect x="14.00" y="10.50" width="1" height="1" fill="#141b2e"></rect><rect x="15.00" y="10.50" width="1" height="1" fill="#eef0f4"></rect><rect x="3.00" y="11.50" width="1" height="1" fill="#eef0f4"></rect><rect x="4.00" y="11.50" width="1" height="1" fill="#eef0f4"></rect><rect x="5.00" y="11.50" width="1" height="1" fill="#eef0f4"></rect><rect x="6.00" y="11.50" width="1" height="1" fill="#eef0f4"></rect><rect x="7.00" y="11.50" width="1" height="1" fill="#eef0f4"></rect><rect x="8.00" y="11.50" width="1" height="1" fill="#eef0f4"></rect><rect x="9.00" y="11.50" width="1" height="1" fill="#eef0f4"></rect><rect x="10.00" y="11.50" width="1" height="1" fill="#eef0f4"></rect><rect x="11.00" y="11.50" width="1" height="1" fill="#eef0f4"></rect><rect x="12.00" y="11.50" width="1" height="1" fill="#eef0f4"></rect><rect x="13.00" y="11.50" width="1" height="1" fill="#eef0f4"></rect><rect x="14.00" y="11.50" width="1" height="1" fill="#eef0f4"></rect><rect x="15.00" y="11.50" width="1" height="1" fill="#eef0f4"></rect><rect x="3.00" y="12.50" width="1" height="1" fill="#eef0f4"></rect><rect x="4.00" y="12.50" width="1" height="1" fill="#eef0f4"></rect><rect x="5.00" y="12.50" width="1" height="1" fill="#eef0f4"></rect><rect x="6.00" y="12.50" width="1" height="1" fill="#eef0f4"></rect><rect x="7.00" y="12.50" width="1" height="1" fill="#eef0f4"></rect><rect x="8.00" y="12.50" width="1" height="1" fill="#eef0f4"></rect><rect x="9.00" y="12.50" width="1" height="1" fill="#eef0f4"></rect><rect x="10.00" y="12.50" width="1" height="1" fill="#eef0f4"></rect><rect x="11.00" y="12.50" width="1" height="1" fill="#eef0f4"></rect><rect x="12.00" y="12.50" width="1" height="1" fill="#eef0f4"></rect><rect x="13.00" y="12.50" width="1" height="1" fill="#eef0f4"></rect><rect x="14.00" y="12.50" width="1" height="1" fill="#eef0f4"></rect><rect x="15.00" y="12.50" width="1" height="1" fill="#eef0f4"></rect><rect x="4.00" y="13.50" width="1" height="1" fill="#eef0f4"></rect><rect x="5.00" y="13.50" width="1" height="1" fill="#eef0f4"></rect><rect x="6.00" y="13.50" width="1" height="1" fill="#eef0f4"></rect><rect x="7.00" y="13.50" width="1" height="1" fill="#eef0f4"></rect><rect x="8.00" y="13.50" width="1" height="1" fill="#eef0f4"></rect><rect x="9.00" y="13.50" width="1" height="1" fill="#eef0f4"></rect><rect x="10.00" y="13.50" width="1" height="1" fill="#eef0f4"></rect><rect x="11.00" y="13.50" width="1" height="1" fill="#eef0f4"></rect><rect x="12.00" y="13.50" width="1" height="1" fill="#eef0f4"></rect><rect x="13.00" y="13.50" width="1" height="1" fill="#eef0f4"></rect><rect x="14.00" y="13.50" width="1" height="1" fill="#eef0f4"></rect><rect x="6.00" y="14.50" width="1" height="1" fill="#eef0f4"></rect><rect x="7.00" y="14.50" width="1" height="1" fill="#eef0f4"></rect><rect x="8.00" y="14.50" width="1" height="1" fill="#eef0f4"></rect><rect x="9.00" y="14.50" width="1" height="1" fill="#eef0f4"></rect><rect x="10.00" y="14.50" width="1" height="1" fill="#eef0f4"></rect><rect x="11.00" y="14.50" width="1" height="1" fill="#eef0f4"></rect><rect x="12.00" y="14.50" width="1" height="1" fill="#eef0f4"></rect></g></svg>