<svg xmlns="http://www.w3.org/2000/svg" viewBox="0 0 19 19" shape-rendering="geometricPrecision"><circle class="bg" cx="9.5" cy="9.5" r="9.5"></circle><g shape-rendering="crispEdges"><rect x="6" y="2" width="1" height="1" fill="#e8e8ee"></rect><rect x="7" y="2" width="1" height="1" fill="#e8e8ee"></rect><rect x="8" y="2" width="1" height="1" fill="#e8e8ee"></rect><rect x="9" y="2" width="1" height="1" fill="#e8e8ee"></rect><rect x="10" y="2" width="1" height="1" fill="#e8e8ee"></rect><rect x="11" y="2" width="1" height="1" fill="#e8e8ee"></rect><rect x="5" y="3" width="1" height="1" fill="#e8e8ee"></rect><rect x="6" y="3" width="1" height="1" fill="#e8e8ee"></rect><rect x="7" y="3" width="1" height="1" fill="#e8e8ee"></rect><rect x="8" y="3" width="1" height="1" fill="#e8e8ee"></rect><rect x="9" y="3" width="1" height="1" fill="#e8e8ee"></rect><rect x="10" y="3" width="1" height="1" fill="#e8e8ee"></rect><rect x="11" y="3" width="1" height="1" fill="#e8e8ee"></rect><rect x="12" y="3" width="1" height="1" fill="#e8e8ee"></rect><rect x="5" y="4" width="1" height="1" fill="#e8e8ee"></rect><rect x="6" y="4" width="1" height="1" fill="#1a2238"></rect><rect x="7" y="4" width="1" height="1" fill="#1a2238"></rect><rect x="8" y="4" width="1" height="1" fill="#1a2238"></rect><rect x="9" y="4" width="1" height="1" fill="#1a2238"></rect><rect x="10" y="4" width="1" height="1" fill="#1a2238"></rect><rect x="11" y="4" width="1" height="1" fill="#1a2238"></rect><rect x="12" y="4" width="1" height="1" fill="#e8e8ee"></rect><rect x="5" y="5" width="1" height="1" fill="#e8e8ee"></rect><rect x="6" y="5" width="1" height="1" fill="#1a2238"></rect><rect x="7" y="5" width="1" height="1" fill="#1a2238"></rect><rect x="8" y="5" width="1" height="1" fill="#1a2238"></rect><rect x="9" y="5" width="1" height="1" fill="#1a2238"></rect><rect x="10" y="5" width="1" height="1" fill="#1a2238"></rect><rect x="11" y="5" width="1" height="1" fill="#1a2238"></rect><rect x="12" y="5" width="1" height="1" fill="#e8e8ee"></rect><rect x="5" y="6" width="1" height="1" fill="#e8e8ee"></rect><rect x="6" y="6" width="1" height="1" fill="#1a2238"></rect><rect x="7" y="6" width="1" height="1" fill="#1a2238"></rect><rect x="8" y="6" width="1" height="1" fill="#1a2238"></rect><rect x="9" y="6" width="1" height="1" fill="#1a2238"></rect><rect x="10" y="6" width="1" height="1" fill="#1a2238"></rect><rect x="11" y="6" width="1" height="1" fill="#1a2238"></rect><rect x="12" y="6" width="1" height="1" fill="#e8e8ee"></rect><rect x="5" y="7" width="1" height="1" fill="#e8e8ee"></rect><rect x="6" y="7" width="1" height="1" fill="#e8e8ee"></rect><rect x="7" y="7" width="1" height="1" fill="#e8e8ee"></rect><rect x="8" y="7" width="1" height="1" fill="#e8e8ee"></rect><rect x="9" y="7" width="1" height="1" fill="#e8e8ee"></rect><rect x="10" y="7" width="1" height="1" fill="#e8e8ee"></rect><rect x="11" y="7" width="1" height="1" fill="#e8e8ee"></rect><rect x="12" y="7" width="1" height="1" fill="#e8e8ee"></rect><rect x="6" y="8" width="1" height="1" fill="#f3f3f7"></rect><rect x="7" y="8" width="1" height="1" fill="#f3f3f7"></rect><rect x="8" y="8" width="1" height="1" fill="#f3f3f7"></rect><rect x="9" y="8" width="1" height="1" fill="#f3f3f7"></rect><rect x="10" y="8" width="1" height="1" fill="#f3f3f7"></rect><rect x="11" y="8" width="1" height="1" fill="#f3f3f7"></rect><rect x="5" y="9" width="1" height="1" fill="#f3f3f7"></rect><rect x="6" y="9" width="1" height="1" fill="#f3f3f7"></rect><rect x="7" y="9" width="1" height="1" fill="#f5d6a0"></rect><rect x="8" y="9" width="1" height="1" fill="#f5d6a0"></rect><rect x="9" y="9" width="1" height="1" fill="#f5d6a0"></rect><rect x="10" y="9" width="1" height="1" fill="#f5d6a0"></rect><rect x="11" y="9" width="1" height="1" fill="#f3f3f7"></rect><rect x="12" y="9" width="1" height="1" fill="#f3f3f7"></rect><rect x="13" y="9" width="1" height="1" fill="#a0a0aa"></rect><rect x="5" y="10" width="1" height="1" fill="#f3f3f7"></rect><rect x="6" y="10" width="1" height="1" fill="#f3f3f7"></rect><rect x="7" y="10" width="1" height="1" fill="#f3f3f7"></rect><rect x="8" y="10" width="1" height="1" fill="#f3f3f7"></rect><rect x="9" y="10" width="1" height="1" fill="#f3f3f7"></rect><rect x="10" y="10" width="1" height="1" fill="#f3f3f7"></rect><rect x="11" y="10" width="1" height="1" fill="#f3f3f7"></rect><rect x="12" y="10" width="1" height="1" fill="#f3f3f7"></rect><rect x="13" y="10" width="1" height="1" fill="#a0a0aa"></rect><rect x="5" y="11" width="1" height="1" fill="#f3f3f7"></rect><rect x="6" y="11" width="1" height="1" fill="#f3f3f7"></rect><rect x="7" y="11" width="1" height="1" fill="#f5d6a0"></rect><rect x="8" y="11" width="1" height="1" fill="#f5d6a0"></rect><rect x="9" y="11" width="1" height="1" fill="#f5d6a0"></rect><rect x="10" y="11" width="1" height="1" fill="#f5d6a0"></rect><rect x="11" y="11" width="1" height="1" fill="#f3f3f7"></rect><rect x="12" y="11" width="1" height="1" fill="#f3f3f7"></rect><rect x="5" y="12" width="1" height="1" fill="#d0d0d6"></rect><rect x="6" y="12" width="1" height="1" fill="#f3f3f7"></rect><rect x="7" y="12" width="1" height="1" fill="#f3f3f7"></rect><rect x="8" y="12" width="1" height="1" fill="#f3f3f7"></rect><rect x="9" y="12" width="1" height="1" fill="#f3f3f7"></rect><rect x="10" y="12" width="1" height="1" fill="#f3f3f7"></rect><rect x="11" y="12" width="1" height="1" fill="#f3f3f7"></rect><rect x="12" y="12" width="1" height="1" fill="#d0d0d6"></rect><rect x="6" y="13" width="1" height="1" fill="#f3f3f7"></rect><rect x="7" y="13" width="1" height="1" fill="#f3f3f7"></rect><rect x="8" y="13" width="1" height="1" fill="#f3f3f7"></rect><rect x="9" y="13" width="1" height="1" fill="#f3f3f7"></rect><rect x="10" y="13" width="1" height="1" fill="#f3f3f7"></rect><rect x="11" y="13" width="1" height="1" fill="#f3f3f7"></rect><rect x="6" y="14" width="1" height="1" fill="#f3f3f7"></rect><rect x="7" y="14" width="1" height="1" fill="#f3f3f7"></rect><rect x="10" y="14" width="1" height="1" fill="#f3f3f7"></rect><rect x="11" y="14" width="1" height="1" fill="#f3f3f7"></rect><rect x="6" y="15" width="1" height="1" fill="#404048"></rect><rect x="7" y="15" width="1" height="1" fill="#404048"></rect><rect x="10" y="15" width="1" height="1" fill="#404048"></rect><rect x="11" y="15" width="1" height="1" fill="#404048"></rect><rect x="5" y="16" width="1" height="1" fill="#404048"></rect><rect x="6" y="16" width="1" height="1" fill="#404048"></rect><rect x="7" y="16" width="1" height="1" fill="#404048"></rect><rect x="10" y="16" width="1" height="1" fill="#404048"></rect><rect x="11" y="16" width="1" height="1" fill="#404048"></rect><rect x="12" y="16" width="1" height="1" fill="#404048"></rect></g></svg>